<svg xmlns="http://www.w3.org/2000/svg" viewBox="0 0 1500 700" preserveAspectRatio="xMinYMid slice">
  <rect width="100%" height="100%" fill="#10397C"/>
    <path fill="#11397C" d="M0 0h1500v700H0z"/>
    <path fill="#222D7B" d="M999.4 0h-4l.7 1.6 3.3-1.6z"/>
    <path fill="#347A8A" d="M185.4 0h-22.7c6.5 4.8 13 9.5 19.6 14.1l3-14.1z"/>
    <path fill="#165180" d="M416.6 0h-54.2c17 10.7 34.3 21 52 31.1.5-10.3 1.2-20.7 2.2-31.1z"/>
    <path fill="#34237D" d="M647.5 0h-83.9c29 15.3 58.7 30 89.1 44-2.2-14.6-4-29.2-5.2-44z"/>
    <path fill="#1C2A7B" d="M878.6 0H770.2c41 18 83.4 34.6 127 50.2C890.1 33.7 884 17 878.5 0z"/>
    <path fill="#31287E" d="M995.3 0h-4l4.8 1.6-.8-1.6z"/>
    <path fill="#3C3981" d="M1147.1 47a909.8 909.8 0 01-32.7-47h-115L996 1.6c48.8 16.5 99.2 31.6 151 45.5z"/>
    <path fill="#156684" d="M1367.7 0h-114.1c48.2 11.3 97.7 21.5 148.4 30.8A1608.6 1608.6 0 011367.7 0z"/>
    <path fill="#0E1A76" d="M182.4 14.1c-6.7-4.6-13.2-9.3-19.7-14.1H70a909.8 909.8 0 00-16.3 70.4C96.4 50.8 139.3 32 182.4 14.1z"/>
    <path fill="#1E6985" d="M216.7 0h-31.3l-3 14.1L216.7 0z"/>
    <path fill="#187186" d="M414.4 31.1c-17.7-10-35-20.4-52-31.1H301a782.4 782.4 0 00-9.2 84c40.8-18.3 81.8-35.9 122.6-52.9z"/>
    <path fill="#0D1876" d="M490.3 0h-73.7c-1 10.4-1.7 20.8-2.3 31.1 25.4-10.6 50.8-21 76-31.1z"/>
    <path fill="#1C0B78" d="M537.6 95c38.6-17.4 77-34.5 115.1-51a1731 1731 0 01-89.1-44h-31.5c-.3 32.2 1.6 64 5.5 95z"/>
    <path fill="#1E6685" d="M754 0H647.6a657 657 0 005.2 44c34.2-15 68-29.6 101.4-44z"/>
    <path fill="#2F5A83" d="M897.1 50.2C853.6 34.6 811.2 18 770.1 0H763a685.5 685.5 0 0028.3 101.3l106-51z"/>
    <path fill="#1A0A78" d="M996.1 1.6L991.3 0H878.6c5.5 17 11.7 33.7 18.5 50.2 33.7-16.3 66.8-32.5 99-48.6z"/>
    <path fill="#41267F" d="M1147.1 47c-51.8-13.8-102.2-28.9-151-45.4 16 33.6 35 66.4 56.2 98.6 32.4-17.7 64-35.4 94.8-53.1z"/>
    <path fill="#14427D" d="M1225.9 0h-111.5a909.8 909.8 0 0032.7 47c27.1-15.5 53.4-31.2 78.8-47z"/>
    <path fill="#2D3C7F" d="M1320.5 88.4c28.3-19 55.6-38.2 81.5-57.6A3150 3150 0 011253.5 0h-16c25.5 29.9 53.4 59.3 83 88.4z"/>
    <path fill="#173F7D" d="M1441.5 0h-73.8c11.2 10.3 22.6 20.6 34.3 30.8 13.6-10.2 26.8-20.5 39.5-30.8z"/>
    <path fill="#285382" d="M70 0H0v30.1C17.6 44 35.5 57.4 53.8 70.4 58.2 47.1 63.6 23.6 70.1 0z"/>
    <path fill="#29177B" d="M182.4 14.1c-43 18-86 36.7-128.6 56.3 36.1 25.7 73.7 49.9 112.4 72.8 1.9-42.4 7.2-85.4 16.2-129z"/>
    <path fill="#170D78" d="M291.8 84c1.5-27.6 4.5-55.6 9.2-84h-84.3l-34.3 14.1c35.1 24.7 71.6 48 109.4 70z"/>
    <path fill="#2E4A81" d="M414.4 31.1c-40.8 17-81.8 34.6-122.6 53 40.7 23.7 82.9 46 126.3 66.9A731.5 731.5 0 01414.3 31z"/>
    <path fill="#1A2279" d="M537.6 95a693 693 0 01-5.5-95h-41.8a6729.6 6729.6 0 00-76 31.1 1764 1764 0 00123.3 64z"/>
    <path fill="#2E5783" d="M652.7 44c-38 16.5-76.5 33.6-115 51 45.7 21.7 93 41.8 141.6 60.8a718.7 718.7 0 01-26.6-111.9z"/>
    <path fill="#17447D" d="M791.2 101.3c-12-33-21.6-66.8-28.3-101.3H754c-33.4 14.4-67.2 29-101.4 44a2126 2126 0 00138.5 57.3z"/>
    <path fill="#341B7D" d="M897.1 50.2l-106 51A2836 2836 0 00950 155.4a851.4 851.4 0 01-52.9-105z"/>
    <path fill="#10397C" d="M996.1 1.6a8567.6 8567.6 0 01-99 48.6c50.2 18 102 34.5 155.2 50A834.4 834.4 0 01996 1.6z"/>
    <path fill="#22307C" d="M1230 146.7A1290.2 1290.2 0 011147 47a4754.6 4754.6 0 01-94.8 53c57.7 16.8 117 32.2 177.6 46.6z"/>
    <path fill="#2D127A" d="M1320.5 88.4c-29.7-29.1-57.5-58.5-83-88.4H1226a2738.5 2738.5 0 01-78.8 47c56.2 15.1 114.1 28.8 173.5 41.4z"/>
    <path fill="#151F78" d="M1320.5 88.4a5101.6 5101.6 0 00179.5 34.5v-11.5a2438 2438 0 01-98-80.6c-26 19.4-53.2 38.6-81.5 57.6z"/>
    <path fill="#13417D" d="M1500 47.5V0h-58.5c-12.8 10.3-26 20.6-39.5 30.8 32.2 5.9 64.9 11.4 98 16.7z"/>
    <path fill="#2D127A" d="M0 30.1v65.7a3296 3296 0 0153.8-25.4C35.5 57.4 17.6 44 0 30.1z"/>
    <path fill="#2F5D84" d="M53.8 70.4a843.7 843.7 0 00-14.6 139.4c41.7-23.3 84.1-45.4 127-66.6C127.5 120.3 89.9 96 53.8 70.4z"/>
    <path fill="#340E7A" d="M291.8 84C254 62 217.5 38.9 182.4 14.2c-9 43.7-14.3 86.7-16.2 129 41.6-20.5 83.5-40.1 125.6-59z"/>
    <path fill="#460F7D" d="M295.7 213C336 191.3 377 170.8 418 151c-43.4-21-85.6-43.2-126.3-67-2.4 43.8-1 86.8 3.9 129z"/>
    <path fill="#29327C" d="M418 151c39.9-19.3 79.8-37.9 119.6-56-42.4-20-83.6-41.2-123.3-63.9-2 40.7-.7 80.7 3.8 119.9z"/>
    <path fill="#123A7C" d="M679.3 155.8c-48.5-19-95.8-39.1-141.7-60.7A752.5 752.5 0 00563 214.8a5970 5970 0 01116.3-59z"/>
    <path fill="#267188" d="M791.2 101.3a2123.1 2123.1 0 01-138.5-57.4 718.8 718.8 0 0026.6 111.9c37.6-18.6 75-36.7 111.9-54.5z"/>
    <path fill="#1A5F83" d="M950 155.3a2836 2836 0 01-158.8-54 868.9 868.9 0 0050.2 112.1c36.5-19.6 72.8-39 108.6-58z"/>
    <path fill="#1C6584" d="M1052.3 100.2c-53.2-15.5-105-32-155.2-50A851.4 851.4 0 00950 155.3c34.6-18.5 68.8-36.8 102.3-55.1z"/>
    <path fill="#132578" d="M1230 146.7a3739 3739 0 01-177.7-46.5c23.8 36 50.4 71.4 79 106.3 33.5-20 66.5-39.8 98.6-59.8z"/>
    <path fill="#122478" d="M1320.5 88.4A3411.2 3411.2 0 011147.1 47c25.1 33.7 53 66.9 82.8 99.6 31.1-19.3 61.4-38.7 90.6-58.3z"/>
    <path fill="#2A4B81" d="M1432.5 190.7c23.1-16.4 45.7-33 67.5-49.8v-18c-61-10.7-121-22.1-179.4-34.5 35.1 34.4 72.8 68.4 111.9 102.3z"/>
    <path fill="#0E487E" d="M1500 111.3V47.5c-33.1-5.3-65.8-10.8-98-16.7 31 27 63.9 53.8 98 80.5z"/>
    <path fill="#28207C" d="M53.8 70.4c-18 8.3-36 16.8-53.8 25.4v89.8c13 8.2 26 16.3 39.2 24.2 1-45.9 5.7-92.3 14.6-139.4z"/>
    <path fill="#1C3F7D" d="M166.2 143.2a2919.2 2919.2 0 00-127 66.6c43 25.7 87.5 49.8 133 72.5a793 793 0 01-6-139.1z"/>
    <path fill="#17397C" d="M295.7 213c-4.9-42.3-6.3-85.2-4-129-42 19-84 38.6-125.5 59.2 41.8 24.7 85 47.9 129.5 69.7z"/>
    <path fill="#2B127A" d="M418 151c-41 19.9-81.9 40.5-122.3 62 48.1 23.6 97.6 45.7 148.2 66.5-12-42-20.8-84.8-25.8-128.5z"/>
    <path fill="#0D3E7C" d="M563 214.8c-11.6-39-20.2-79-25.4-119.7A5340 5340 0 00418.1 151c47 22.7 95.3 43.8 144.9 63.8z"/>
    <path fill="#296685" d="M679.3 155.8a5886.7 5886.7 0 00-116.3 59c53.8 21.6 109 41.8 165.3 60.9-19.3-39.1-35.8-79-49-120z"/>
    <path fill="#1E5682" d="M841.4 213.4a869.5 869.5 0 01-50.2-112.1c-37 17.8-74.4 36-111.9 54.5a3016.2 3016.2 0 00162.1 57.6z"/>
    <path fill="#1A407D" d="M950 155.3l-108.6 58.1a4357.5 4357.5 0 00184.4 55.3A1258 1258 0 01950 155.3z"/>
    <path fill="#2B307D" d="M1052.3 100.2c-33.5 18.3-67.7 36.6-102.3 55.1 59 18.3 119.5 35.2 181.2 51.2a1277.2 1277.2 0 01-79-106.3z"/>
    <path fill="#195682" d="M1230 146.7c-32.2 20-65.2 39.8-98.8 59.8 67.3 17.4 136 33.7 205.8 49.4a2434.6 2434.6 0 01-107-109.2z"/>
    <path fill="#12397C" d="M1432.5 190.7a2502.3 2502.3 0 01-112-102.3c-29.2 19.6-59.5 39-90.6 58.3 66 15.7 133.7 30.2 202.6 44z"/>
    <path fill="#1A5E83" d="M1500 203.9v-63a2247.3 2247.3 0 01-67.5 49.8 8984 8984 0 0067.5 13.2z"/>
    <path fill="#3C107C" d="M0 185.7V232c13-7.6 26-15 39.2-22.3-13.2-8-26.3-16-39.2-24.2z"/>
    <path fill="#214E81" d="M39.2 209.8c-1.1 51 2.6 101.4 10.8 150.9 39.6-27.4 80.5-53.5 122.2-78.4-45.5-22.7-90-46.8-133-72.5z"/>
    <path fill="#533883" d="M166.2 143.2c-2.1 47.2 0 93.5 6 139A2807 2807 0 01295.7 213c-44.4-21.8-87.7-45-129.5-69.7z"/>
    <path fill="#195682" d="M444 279.5c-50.7-20.8-100.2-43-148.3-66.6a813.7 813.7 0 0028.5 138.7c39-25 79.1-49 119.7-72z"/>
    <path fill="#135180" d="M563 214.8c-49.6-20-98-41.1-145-63.8 5 43.8 13.8 86.6 26 128.5 39.2-22.3 79-43.8 119-64.7z"/>
    <path fill="#395183" d="M728.3 275.6A3171 3171 0 01563 214.8c13 43.8 29.7 86.6 49.4 128.5 38.2-23.2 77-45.7 115.9-67.7z"/>
    <path fill="#340E7A" d="M841.4 213.4a2999 2999 0 01-162-57.6 891.5 891.5 0 0048.9 119.8c37.6-21.2 75.5-41.8 113.1-62.2z"/>
    <path fill="#191F79" d="M1025.8 268.7a4362 4362 0 01-184.4-55.3c22 41.2 47 81.5 74 121 36.8-22.3 73.7-44.1 110.4-65.7z"/>
    <path fill="#081A76" d="M1131.2 206.5c-61.7-16-122.2-33-181.2-51.2 22.6 38.6 48.2 76.3 75.8 113.4 35.4-21 70.7-41.6 105.4-62.2z"/>
    <path fill="#30137B" d="M1234 322.8c34.8-22.3 69.2-44.5 103-66.9-69.7-15.7-138.5-32-205.8-49.4 32.2 39.3 67 78 102.9 116.3z"/>
    <path fill="#1F7487" d="M1337 256c32.6-21.7 64.5-43.4 95.5-65.3a5874.4 5874.4 0 01-202.6-44c33.6 36.8 69.7 73.1 107 109.2z"/>
    <path fill="#25337C" d="M1500 248.2v-44.3a8984 8984 0 01-67.5-13.2c22.1 19.1 44.7 38.3 67.5 57.5z"/>
    <path fill="#2C367D" d="M39.2 209.8C26 217 13 224.5 0 232v102.7c16.5 8.8 33.2 17.5 50 25.9a821.8 821.8 0 01-10.8-151z"/>
    <path fill="#1A287A" d="M172.2 282.3c-41.7 24.9-82.6 51-122.2 78.4 51 25.6 103.3 49.5 156.4 71.9a847 847 0 01-34.2-150.3z"/>
    <path fill="#0C1076" d="M295.7 213c-41.8 22-83 45.1-123.5 69.3a2531.5 2531.5 0 00152 69.2A814.7 814.7 0 01295.7 213z"/>
    <path fill="#11397C" d="M324.2 351.6a3405.7 3405.7 0 00172.1 66.2A937.3 937.3 0 01444 279.5c-40.6 23.1-80.6 47-119.7 72z"/>
    <path fill="#1C5882" d="M612.4 343.3A913.8 913.8 0 01563 214.8c-40 20.9-79.8 42.4-119 64.7 55 22.7 111.2 43.8 168.4 63.8z"/>
    <path fill="#175A82" d="M612.4 343.3c62.4 21.8 126 42.2 190 61.6a1250.2 1250.2 0 01-74.1-129.2c-39 21.9-77.7 44.4-115.9 67.6z"/>
    <path fill="#205F83" d="M915.4 334.4a1255.9 1255.9 0 01-74-121c-37.6 20.4-75.5 41-113.1 62.2a4653.5 4653.5 0 00187.1 58.8z"/>
    <path fill="#175782" d="M915.4 334.4a8326.2 8326.2 0 00210.3 58c-35-40.6-68.7-81.8-100-123.7-36.6 21.6-73.5 43.4-110.3 65.7z"/>
    <path fill="#131678" d="M1234 322.8c-35.9-38.3-70.6-77-102.8-116.3-34.7 20.6-70 41.3-105.4 62.2 68.4 19 138 36.8 208.3 54.1z"/>
    <path fill="#051675" d="M1467.5 378.5c-44-41-88.1-81.6-130.5-122.6a8623.8 8623.8 0 01-103 67c77.2 19 155.2 37.3 233.5 55.6z"/>
    <path fill="#191A79" d="M1337 256c53.8 12 108.2 23.8 163 35.4v-43.2a5695 5695 0 01-67.5-57.5c-31 22-63 43.6-95.5 65.2z"/>
    <path fill="#285182" d="M0 334.8v61.8c16.4-12.2 33-24.2 50-35.9-16.8-8.4-33.5-17-50-25.9z"/>
    <path fill="#2D7689" d="M50 360.7a892.2 892.2 0 0043.7 164c35.7-32.2 73.5-62.9 112.7-92.1A2622.2 2622.2 0 0150 360.7z"/>
    <path fill="#0D1876" d="M172.2 282.3a848 848 0 0034.2 150.3c38-28.3 77.4-55.2 117.8-81a2538 2538 0 01-152-69.3z"/>
    <path fill="#2B5A83" d="M383 501.2A1877 1877 0 01496.3 418a3422.7 3422.7 0 01-172.1-66.3A970 970 0 00383 501.2z"/>
    <path fill="#4A1B7F" d="M444 279.5a937.7 937.7 0 0052.3 138.3c37.8-25.7 76.6-50.5 116.1-74.5-57.2-20-113.5-41.1-168.5-63.8z"/>
    <path fill="#112478" d="M689.4 482c36.7-26.5 74.5-52.1 113-77-64-19.5-127.6-40-190-61.7 22.3 47.3 48.3 93.5 77 138.7z"/>
    <path fill="#140D78" d="M728.3 275.6c21.6 44.1 46.7 87.1 74.1 129.3 37.2-24 75-47.5 113-70.5-63.3-18.6-125.9-38-187.1-58.8z"/>
    <path fill="#1C6A85" d="M915.4 334.4c30.8 44.8 64.3 88.6 99 131.8a5525 5525 0 01111.3-73.7c-70.7-18.7-141-37.9-210.3-58.1z"/>
    <path fill="#310C7A" d="M1125.7 392.5c36.1-23.4 72.4-46.6 108.4-69.7a7456 7456 0 01-208.3-54.1c31.2 42 65 83 100 123.8z"/>
    <path fill="#1B417D" d="M1359.5 452.9c36-24.8 72.2-49.5 108-74.4-78.3-18.4-156.3-36.7-233.4-55.7 40.8 43.6 83.3 86.8 125.4 130z"/>
    <path fill="#287489" d="M1467.5 378.5l32.5-22.8v-64.3c-54.8-11.6-109.2-23.4-163-35.5 42.4 41 86.5 81.7 130.5 122.6z"/>
    <path fill="#353480" d="M50 360.7c-17 11.7-33.6 23.7-50 35.9v86.6c31 14.4 62.2 28.2 93.7 41.5a892.6 892.6 0 01-43.7-164z"/>
    <path fill="#40117D" d="M93.7 524.7c60 25.3 121 48.8 182.3 70.9a1018.2 1018.2 0 01-69.6-163c-39.3 29.2-77 59.9-112.7 92.1z"/>
    <path fill="#2F6485" d="M206.4 432.6c58 24.4 117 47.2 176.6 68.6a969.7 969.7 0 01-58.8-149.6 2014.8 2014.8 0 00-117.8 81z"/>
    <path fill="#541F80" d="M383 501.2a5282.7 5282.7 0 00197 66.2 1261.5 1261.5 0 01-83.7-149.5A1877 1877 0 00383 501.2z"/>
    <path fill="#20297B" d="M496.3 417.9a5099.7 5099.7 0 00193.1 64 1250.5 1250.5 0 01-77-138.6c-39.5 24-78.3 48.8-116 74.6z"/>
    <path fill="#285182" d="M689.4 482a10104 10104 0 00214 63.7 2080 2080 0 01-101-140.8c-38.5 25-76.4 50.6-113 77z"/>
    <path fill="#210F79" d="M802.4 405a9204.1 9204.1 0 00212 61.2c-34.7-43.2-68.2-87-99-131.8-38 23-75.8 46.5-113 70.5z"/>
    <path fill="#49187E" d="M1014.5 466.2c78 21.7 156.2 42.8 233.5 64.1-41-45.6-82.4-91.4-122.3-137.8a5524.6 5524.6 0 00-111.3 73.7z"/>
    <path fill="#183D7D" d="M1125.7 392.5c77.7 20.5 155.9 40.4 233.8 60.4-42.1-43.3-84.6-86.5-125.4-130-36 23-72.3 46.2-108.4 69.6z"/>
    <path fill="#0D1A76" d="M1359.5 452.9c47 12 93.9 24.2 140.5 36.5v-80.5l-32.5-30.4c-35.8 25-72 49.6-108 74.4z"/>
    <path fill="#1D297A" d="M1500 386.1v-30.4l-32.5 22.8 32.5 7.6z"/>
    <path fill="#1E217A" d="M93.7 524.7A2846.6 2846.6 0 010 483.2v135.5c29.3-32.8 60.6-64.1 93.7-94z"/>
    <path fill="#20227B" d="M276 595.6c-61.4-22-122.3-45.6-182.3-70.9 22 59.5 50.2 118 83.9 175.3h4.8c28.5-36.6 59.9-71.3 93.6-104.4z"/>
    <path fill="#4D6587" d="M206.4 432.6c18 55.5 41.4 109.8 69.6 163 33.5-33 69.4-64.3 107-94.4a3522.8 3522.8 0 01-176.6-68.6z"/>
    <path fill="#1D7086" d="M478.3 663.5C509.6 630 543.9 598 580 567.4c-66-20.8-131.8-42.7-197-66.2 27 55.4 59.1 109.4 95.3 162.3z"/>
    <path fill="#16287A" d="M496.3 417.9A1263 1263 0 00580 567.4c34.8-29.6 71.5-58 109.4-85.4a5141.3 5141.3 0 01-193-64.1z"/>
    <path fill="#145781" d="M796.6 632.9c33.7-30 69.6-59 106.8-87.2-71.2-20.5-142.8-41.5-214-63.7 32.8 51.4 69 101.6 107.2 150.9z"/>
    <path fill="#492D81" d="M802.4 405a2080 2080 0 00101 140.7 2820 2820 0 01111-79.5c-70.9-19.7-141.8-40-212-61.3z"/>
    <path fill="#26367D" d="M1014.5 466.2c39.7 49.4 81.1 98 122.1 146.2 36-27.8 73.3-55 111.4-82.1-77.3-21.3-155.5-42.4-233.5-64z"/>
    <path fill="#081976" d="M1248 530.3c36.6-26 74-51.7 111.5-77.4-78-20-156.1-40-233.8-60.4 39.9 46.4 81.3 92.2 122.3 137.8z"/>
    <path fill="#070D75" d="M1500 602.2V489.4c-46.6-12.3-93.5-24.4-140.5-36.5 48.2 49.5 96 99 140.5 149.3z"/>
    <path fill="#255582" d="M1500 408.9v-22.7l-32.5-7.7L1500 409z"/>
    <path fill="#0F1D77" d="M0 700h23c-8.1-15.6-15.8-31.2-23-46.9V700z"/>
    <path fill="#29187B" d="M0 618.7v15.8c56.2 23.3 113 45 169.9 65.5h7.7c-33.7-57.3-62-115.8-83.9-175.3a1225.2 1225.2 0 00-93.7 94z"/>
    <path fill="#071275" d="M182.4 700H338a1272.4 1272.4 0 01-62-104.4A1062 1062 0 00182.4 700z"/>
    <path fill="#2E6D87" d="M276 595.6a5401.8 5401.8 0 00202.2 67.9A1293.7 1293.7 0 01383 501.2c-37.6 30-73.5 61.4-107 94.4z"/>
    <path fill="#0D3079" d="M478.3 663.5C518 676 557.6 688.2 597 700H675a1841.2 1841.2 0 01-95-132.6 1253 1253 0 00-101.6 96z"/>
    <path fill="#32197C" d="M580 567.4a10818 10818 0 00216.6 65.5 1989.7 1989.7 0 01-107.2-151c-38 27.5-74.6 56-109.4 85.5z"/>
    <path fill="#152679" d="M796.6 632.9c77.8 22.8 154.7 44.9 229.5 67.1h2.8c-42.3-50.7-84.9-102-125.5-154.3-37.2 28.2-73 57.2-106.8 87.2z"/>
    <path fill="#246384" d="M903.4 545.7c78.5 22.6 156.6 44.5 233.2 66.7-41-48.2-82.4-96.8-122.1-146.2a2820 2820 0 00-111 79.5z"/>
    <path fill="#060B74" d="M1248 530.3c-38.1 27-75.5 54.3-111.4 82a7357 7357 0 01248 75.7A4230 4230 0 001248 530.3z"/>
    <path fill="#231179" d="M1248 530.3a9771.4 9771.4 0 01252 72.3v-.4a4373.7 4373.7 0 00-140.5-149.3 9047.9 9047.9 0 00-111.5 77.4z"/>
    <path fill="#14437D" d="M0 653.1c7.2 15.7 14.9 31.3 23 46.9h146.9c-57-20.4-113.7-42.2-169.9-65.5v18.6z"/>
    <path fill="#185080" d="M276 595.6c18.6 35.3 39.4 70 62 104.4h107.5c10.6-12.4 21.5-24.5 32.7-36.5-67.3-21.3-135-43.7-202.2-68z"/>
    <path fill="#385E84" d="M504 700H597c-39.4-11.8-79-24-118.9-36.5 8.4 12.2 17 24.4 25.8 36.5z"/>
    <path fill="#2D6C87" d="M796.6 632.9c-71.7-21-144.2-42.6-216.6-65.5 29.2 45 61 89.3 95 132.6h51.6c22-23 45.5-45.3 70-67.1z"/>
    <path fill="#321E7D" d="M850.2 700h176c-74.9-22.2-151.7-44.3-229.6-67.1 17.5 22.5 35.4 45 53.6 67.1z"/>
    <path fill="#0E0C77" d="M903.4 545.7A5558.6 5558.6 0 001029 700h2.2c33.2-30 68.6-59 105.5-87.6-76.6-22.2-154.7-44.1-233.2-66.7z"/>
    <path fill="#071B76" d="M1136.6 612.4a8426 8426 0 0173.8 87.6h158.5l15.7-12c-80-26.3-163.1-51-248-75.6z"/>
    <path fill="#34217D" d="M1384.6 688c37.3-28.5 76-56.7 115.4-85v-.4a9720 9720 0 00-252-72.3A4230 4230 0 011384.6 688z"/>
    <path fill="#420F7D" d="M445.5 700H504c-8.8-12.1-17.4-24.3-25.7-36.5-11.3 12-22.2 24.1-32.8 36.5z"/>
    <path fill="#3E6B88" d="M726.6 700h123.6a3242.1 3242.1 0 01-53.6-67.1c-24.5 21.8-48 44.1-70 67.1z"/>
    <path fill="#1A6183" d="M1136.6 612.4a1827 1827 0 00-105.5 87.6h179.3c-24.1-29.1-48.9-58.3-73.8-87.6z"/>
    <path fill="#3F207E" d="M1369 700h25.3l-9.7-12-15.7 12z"/>
    <path fill="#1B4F80" d="M1420.8 700h79.2v-97a4788.7 4788.7 0 00-115.4 85l36.2 12z"/>
    <path fill="#0E377B" d="M1394.3 700h26.5l-36.2-12 9.7 12z"/>
  <radialGradient id="a" cx="140" cy="127" r="1233" fx="-125" fy="124" gradientTransform="matrix(-.9 -.4 .2 -.4 241 241)" gradientUnits="userSpaceOnUse">
    <stop offset=".3" stop-color="#001b4b" stop-opacity="0"/>
    <stop offset="1" stop-color="#001b4b" stop-opacity=".8"/>
  </radialGradient>
  <rect width="100%" height="100%" fill="url(#a)"/>
</svg>
